<svg width="154" height="168" viewBox="0 0 154 168" fill="none" xmlns="http://www.w3.org/2000/svg">
<path d="M57.8481 112H5.5832C3.61874 112 2.17124 111.585 1.24071 110.756C0.41357 109.822 0 108.37 0 106.4V5.6C0 3.62963 0.41357 2.22963 1.24071 1.4C2.17124 0.466667 3.61874 0 5.5832 0H57.8481C70.7722 0 80.336 2.59259 86.5396 7.77778C92.8465 12.963 96 20.9481 96 31.7333V80.2667C96 91.0519 92.8465 99.037 86.5396 104.222C80.336 109.407 70.7722 112 57.8481 112ZM35.2052 29.7111V82.6H53.6607C56.1422 82.6 57.9515 81.9778 59.0889 80.7333C60.3296 79.4889 60.9499 77.5704 60.9499 74.9778V37.1778C60.9499 34.5852 60.3296 32.7185 59.0889 31.5778C57.9515 30.3333 56.1422 29.7111 53.6607 29.7111H35.2052Z" fill="white"/>
<path d="M148.452 168H99.9095C87.0676 168 77.5131 165.407 71.2462 160.222C65.0821 155.037 62 147.052 62 136.267V87.7333C62 76.9481 65.0821 68.963 71.2462 63.7778C77.5131 58.5926 87.0676 56 99.9095 56H138.436C140.387 56 141.774 56.4667 142.596 57.4C143.521 58.2296 143.983 59.6296 143.983 61.6V80.4222C143.983 82.3926 143.521 83.8444 142.596 84.7778C141.774 85.6074 140.387 86.0222 138.436 86.0222H106.382C103.197 86.0222 100.834 86.6963 99.2931 88.0444C97.7521 89.2889 96.9816 91.2074 96.9816 93.8V130.978C96.9816 133.57 97.5466 135.489 98.6767 136.733C99.9095 137.978 101.707 138.6 104.07 138.6H119.018V114.333C119.018 112.363 119.429 110.963 120.251 110.133C121.176 109.2 122.614 108.733 124.566 108.733H148.452C150.404 108.733 151.791 109.2 152.613 110.133C153.538 110.963 154 112.363 154 114.333V162.4C154 164.37 153.538 165.822 152.613 166.756C151.791 167.585 150.404 168 148.452 168Z" />
</svg>
